<svg width="404" height="120" viewBox="0 0 404 120" fill="none" xmlns="http://www.w3.org/2000/svg">
<path d="M11.13 90.19H1.73999C1.26999 90.19 0.890015 89.81 0.890015 89.34V40.78V40.37C0.890015 34.55 5.60999 29.83 11.43 29.83H44.72C45.19 29.83 45.57 30.21 45.57 30.68V39.48C45.57 39.95 45.19 40.33 44.72 40.33H12.69C12.22 40.33 11.84 40.71 11.84 41.18L11.98 89.33C11.98 89.81 11.6 90.19 11.13 90.19Z" fill="#45A5DD"/>
<path d="M14.79 55.94V64.45C14.79 64.94 15.19 65.34 15.68 65.34H36.09C36.58 65.34 36.98 64.94 36.98 64.45V55.94C36.98 55.45 36.58 55.05 36.09 55.05H15.68C15.19 55.05 14.79 55.45 14.79 55.94Z" fill="#45A5DD"/>
<path d="M76.77 80.17V89.56C76.77 89.91 76.49 90.19 76.14 90.19H49.6C44.15 90.19 40.66 84.38 43.22 79.57L67.31 34.27C67.31 34.27 69 30.61 74.98 29.88C75.29 29.84 75.6 29.83 75.91 29.83H82.7C84.77 29.83 86.81 30.36 88.58 31.43C90.84 32.8 93.34 35.17 93.49 39.01V89.57C93.49 89.92 93.21 90.2 92.86 90.2H83.17C82.82 90.2 82.54 89.92 82.54 89.57V41.27C82.54 40.92 82.26 40.64 81.91 40.64H76.12C75.88 40.64 75.67 40.77 75.56 40.98L56.09 78.63C55.87 79.05 56.18 79.55 56.65 79.55H76.14C76.49 79.54 76.77 79.83 76.77 80.17Z" fill="white"/>
<path d="M105.7 29.84H116.92C117.26 29.84 117.57 30.01 117.74 30.3L141.71 69.53C142.22 70.36 143.49 70 143.49 69.03V30.8C143.49 30.27 143.92 29.84 144.45 29.84H153.47C154 29.84 154.43 30.27 154.43 30.8V89.23C154.43 89.76 154 90.19 153.47 90.19H142.69C142.36 90.19 142.05 90.02 141.88 89.74L117.61 51.01C117.1 50.19 115.83 50.56 115.83 51.52V89.23C115.83 89.76 115.4 90.19 114.87 90.19H105.7C105.17 90.19 104.74 89.76 104.74 89.23V30.8C104.73 30.27 105.16 29.84 105.7 29.84Z" fill="white"/>
<path d="M236.25 30.32V40.16C236.25 40.51 236.53 40.79 236.88 40.79H273.94C274.29 40.79 274.57 41.07 274.57 41.42V58.65C274.57 59 274.29 59.28 273.94 59.28H236.88C236.53 59.28 236.25 59.56 236.25 59.91V89.57C236.25 89.92 236.53 90.2 236.88 90.2H245.98C246.33 90.2 246.61 89.92 246.61 89.57V70.7C246.61 70.35 246.89 70.07 247.24 70.07H274.02C280.37 70.07 285.52 64.92 285.52 58.57V41.19C285.52 34.84 280.37 29.69 274.02 29.69H236.89C236.53 29.69 236.25 29.97 236.25 30.32Z" fill="#45A5DD"/>
<path d="M293.94 30.32V39.86C293.94 40.21 294.22 40.49 294.57 40.49H331.92C332.27 40.49 332.55 40.77 332.55 41.12V58.65C332.55 59 332.27 59.28 331.92 59.28H294.57C294.22 59.28 293.94 59.56 293.94 59.91V89.57C293.94 89.92 294.22 90.2 294.57 90.2H304.56C304.91 90.2 305.19 89.92 305.19 89.57V70.41C305.19 70.06 305.47 69.78 305.82 69.78H315.81C316.02 69.78 316.21 69.88 316.33 70.05L330.01 89.92C330.13 90.09 330.32 90.19 330.53 90.19H342C342.51 90.19 342.81 89.61 342.51 89.2L329.58 71.07C329.28 70.65 329.58 70.08 330.09 70.08H333.2C338.74 70.08 343.22 65.59 343.22 60.06V39.72C343.22 34.18 338.73 29.7 333.2 29.7H294.59C294.22 29.69 293.94 29.97 293.94 30.32Z" fill="white"/>
<path d="M392.76 29.69H363.32C357.6 29.69 352.96 34.32 352.96 40.04V79.83C352.96 85.55 357.6 90.18 363.32 90.18H392.76C398.48 90.18 403.11 85.55 403.11 79.83V40.04C403.12 34.32 398.48 29.69 392.76 29.69ZM391.87 78.66C391.87 79.31 391.34 79.84 390.69 79.84H365.1C364.44 79.84 363.91 79.31 363.91 78.66V41.68C363.91 41.03 364.44 40.49 365.1 40.49H390.69C391.34 40.49 391.87 41.02 391.87 41.68V78.66Z" fill="white"/>
<path d="M217.31 74.79L188.22 75.72L190.08 52.21L217.31 74.79Z" fill="#F5DE21"/>
<path d="M228.44 0.230003L190.08 52.21L188.22 75.72L170.29 51.9L228.44 0.230003Z" fill="#F5C70C"/>
<path d="M217.31 74.79L162.24 119.65L188.22 75.72L217.31 74.79Z" fill="#F5C70C"/>
</svg>
