<svg width="1920" height="1101" viewBox="0 0 1920 1101" fill="none" xmlns="http://www.w3.org/2000/svg">
<path d="M2716.44 996.26C2539.33 1082.7 2245.65 1119.66 2213.36 857.44C2167.86 487.95 2350.14 165.02 2147.78 58.02C1945.42 -48.98 1795.71 376.05 1520.23 213.73C1277.24 70.56 972.86 -31.9401 854.77 365.72C815 499.65 721.82 642.81 569.27 654.52C428.53 665.32 316.18 556.76 261.05 437.05C205.6 316.63 154.25 168.4 -6.79001 173.7C-177.99 179.33 -270.75 355.14 -299.72 503.55C-315.19 582.8 -319.04 658.71 -349.09 735.14C-379.28 811.9 -422.63 883.05 -472.61 948.46" stroke="#F5DE21" stroke-width="80" stroke-miterlimit="10"/>
</svg>
